<?xml version="1.0" encoding="utf-8"?>
<svg version="1.1" xmlns:xlink="http://www.w3.org/1999/xlink" width="24px" height="23px" xmlns="http://www.w3.org/2000/svg">
  <g transform="matrix(1 0 0 1 -15 -11 )">
    <path d="M 9.84109311740891 7.65182186234818  C 13.9402834008097 5.84817813765182  18.0941295546559 5.79352226720648  18.0941295546559 5.79352226720648  L 23.669028340081 5.79352226720648  L 23.669028340081 0  L 22.1933198380567 0  L 22.1933198380567 4.31781376518219  L 18.0941295546559 4.31781376518219  C 17.9301619433198 4.31781376518219  13.6123481781377 4.37246963562753  9.29453441295546 6.23076923076923  C 5.79655870445344 7.70647773279352  3.28238866396761 9.94736842105263  2 12.8441295546559  L 2 0  L 0.330971659919026 0  L 0.330971659919026 22.2449392712551  L 1.26012145748988 22.2449392712551  C 1.26012145748988 22.1902834008097  1.26012145748988 21.5344129554656  1.26012145748988 21.2611336032389  C 1.36943319838056 17.9271255060729  2.13461538461538 15.3582995951417  3.22773279352227 13.3906882591093  C 3.82894736842105 12.1882591093117  4.64878542510121 11.1497975708502  5.68724696356275 10.2206477732794  C 6.67105263157895 9.29149797570851  7.70951417004048 8.63562753036438  8.74797570850202 8.14372469635628  C 9.07591093117409 7.97975708502025  9.34919028340081 7.87044534412956  9.67712550607287 7.70647773279353  C 9.73178137651822 7.70647773279353  9.78643724696356 7.65182186234818  9.84109311740891 7.65182186234818  Z " fill-rule="nonzero" fill="#b70031" stroke="none" transform="matrix(1 0 0 1 15 11 )" />
  </g>
</svg>