<?xml version="1.0" encoding="utf-8"?>
<svg version="1.1" xmlns:xlink="http://www.w3.org/1999/xlink" width="28px" height="18px" xmlns="http://www.w3.org/2000/svg">
  <g transform="matrix(1 0 0 1 -1360 -176 )">
    <path d="M 0.685546875 12.4945312499999  C 0.228515625 11.38359375  0 10.2187499999999  0 9  C 0 7.78125000000006  0.228515625 6.61640625000001  0.685546875 5.50546875000009  C 1.142578125 4.39453125  1.75419347426464 3.43828124999999  2.52039292279392 2.63671875  C 3.28659237132342 1.8351562500001  4.20065487132342 1.1953125  5.26258042279392 0.717187499999909  C 6.32450597426464 0.239062499999903  7.43795955882388 0  8.60294117647049 0  L 18.9264705882356 0  C 20.0914522058822 0  21.2049057904414 0.239062499999903  22.2668313419122 0.717187499999909  C 23.3287568933827 1.1953125  24.2428193933827 1.8351562500001  25.0090188419122 2.63671875  C 25.7752182904414 3.43828124999999  26.3868336397061 4.39453125  26.8438648897061 5.50546875000009  C 27.3008961397061 6.61640625000001  27.5294117647061 7.78125000000006  27.5294117647061 9  C 27.5294117647061 10.2187499999999  27.3008961397061 11.38359375  26.8438648897061 12.4945312499999  C 26.3868336397061 13.60546875  25.7752182904414 14.56171875  25.0090188419122 15.36328125  C 24.2428193933827 16.16484375  23.3287568933827 16.8046875  22.2668313419122 17.2828125000001  C 21.2049057904414 17.7609375  20.0914522058822 18  18.9264705882356 18  L 8.60294117647049 18  C 7.43795955882388 18  6.32450597426464 17.7609375  5.26258042279392 17.2828125000001  C 4.20065487132342 16.8046875  3.28659237132342 16.16484375  2.52039292279392 15.36328125  C 1.75419347426464 14.56171875  1.142578125 13.60546875  0.685546875 12.4945312499999  Z M 16.2582146139705 15.6304687500001  C 17.1050666360295 16.0101562499999  17.9944852941176 16.2  18.9264705882356 16.2  C 19.8584558823534 16.2  20.7478745404414 16.0101562499999  21.5947265625 15.6304687500001  C 22.441578584559 15.25078125  23.174172794118 14.7375  23.7925091911766 14.090625  C 24.4108455882356 13.4437499999999  24.9014820772061 12.6773437500001  25.2644186580885 11.7914062499999  C 25.6273552389707 10.90546875  25.8088235294122 9.97500000000002  25.8088235294122 9  C 25.8088235294122 8.02499999999998  25.6273552389707 7.09453124999999  25.2644186580885 6.20859375000009  C 24.9014820772061 5.32265624999991  24.4108455882356 4.55625000000009  23.7925091911766 3.90937500000001  C 23.174172794118 3.26249999999999  22.441578584559 2.7492187500001  21.5947265625 2.36953124999991  C 20.7478745404414 1.98984375000009  19.8584558823534 1.8000000000001  18.9264705882356 1.8000000000001  C 17.9944852941176 1.8000000000001  17.1050666360295 1.98984375000009  16.2582146139705 2.36953124999991  C 15.4113625919119 2.7492187500001  14.6787683823532 3.26249999999999  14.0604319852941 3.90937500000001  C 13.4420955882356 4.55625000000009  12.9514590992649 5.32265624999991  12.5885225183824 6.20859375000009  C 12.2255859375 7.09453124999999  12.044117647059 8.02499999999998  12.044117647059 9  C 12.044117647059 9.97500000000002  12.2255859375 10.90546875  12.5885225183824 11.7914062499999  C 12.9514590992649 12.6773437500001  13.4420955882356 13.4437499999999  14.0604319852941 14.090625  C 14.6787683823532 14.7375  15.4113625919119 15.25078125  16.2582146139705 15.6304687500001  Z " fill-rule="nonzero" fill="#1dc571" stroke="none" transform="matrix(1 0 0 1 1360 176 )" />
  </g>
</svg>