<?xml version="1.0" encoding="utf-8"?>
<svg version="1.1" xmlns:xlink="http://www.w3.org/1999/xlink" width="20px" height="18px" xmlns="http://www.w3.org/2000/svg">
  <g transform="matrix(1 0 0 1 -207 -183 )">
    <path d="M 13.6495535714286 9.60937500000001  C 13.7834821428572 9.86979166666665  13.9955357142857 9.99999999999999  14.2857142857143 9.99999999999999  L 17.6897321428572 9.99999999999999  C 17.6525297619047 10.0446428571429  17.6153273809524 10.0837053571429  17.578125 10.1171875  C 17.5409226190476 10.1506696428571  17.5074404761905 10.1785714285715  17.4776785714286 10.2008928571429  L 17.4441964285714 10.2455357142857  L 10.4910714285714 16.9419642857143  C 10.3571428571428 17.0758928571429  10.1934523809524 17.1428571428572  10 17.1428571428572  C 9.80654761904763 17.1428571428572  9.64285714285715 17.0758928571429  9.50892857142858 16.9419642857143  L 2.54464285714285 10.2232142857143  C 2.50744047619047 10.2083333333333  2.42931547619047 10.1339285714286  2.31026785714286 9.99999999999999  L 6.42857142857142 9.99999999999999  C 6.5922619047619 9.99999999999999  6.7392113095238 9.94977678571428  6.86941964285715 9.84933035714285  C 6.99962797619047 9.74888392857142  7.08333333333332 9.62053571428571  7.12053571428573 9.46428571428572  L 7.90178571428573 6.328125  L 10.0223214285714 13.7723214285714  C 10.0669642857143 13.921130952381  10.1525297619047 14.0438988095238  10.2790178571428 14.140625  C 10.4055059523809 14.2373511904762  10.5505952380953 14.2857142857143  10.7142857142857 14.2857142857143  C 10.8705357142857 14.2857142857143  11.0119047619047 14.2373511904762  11.1383928571428 14.140625  C 11.2648809523809 14.0438988095238  11.3504464285714 13.921130952381  11.3950892857143 13.7723214285714  L 13.0245535714286 8.359375  L 13.6495535714286 9.60937500000001  Z M 18.5825892857143 1.38392857142857  C 19.5275297619047 2.30654761904764  20 3.58630952380952  20 5.22321428571429  C 20 6.30208333333335  19.6168154761905 7.41815476190476  18.8504464285714 8.5714285714286  L 14.7321428571428 8.5714285714286  L 13.4933035714286 6.10491071428571  C 13.4337797619047 5.97842261904763  13.3389136904762 5.8779761904762  13.2087053571428 5.80357142857143  C 13.0784970238095 5.72916666666669  12.9427083333333 5.69940476190478  12.8013392857143 5.71428571428573  C 12.4665178571428 5.75148809523808  12.2581845238095 5.92261904761907  12.1763392857143 6.22767857142857  L 10.7366071428572 11.0267857142857  L 8.54910714285715 3.37053571428571  C 8.50446428571427 3.22172619047619  8.4170386904762 3.09895833333333  8.28683035714285 3.00223214285716  C 8.15662202380953 2.90550595238095  8.00967261904763 2.85714285714287  7.84598214285715 2.85714285714287  C 7.68229166666668 2.85714285714287  7.53720238095237 2.90736607142858  7.41071428571427 3.00781250000001  C 7.2842261904762 3.10825892857144  7.20238095238095 3.23660714285715  7.16517857142858 3.39285714285714  L 5.87053571428573 8.5714285714286  L 1.14955357142858 8.5714285714286  C 0.383184523809526 7.41815476190476  0 6.30208333333335  0 5.22321428571429  C 0 3.58630952380952  0.472470238095237 2.30654761904764  1.41741071428571 1.38392857142857  C 2.36235119047619 0.461309523809535  3.66815476190474 0  5.33482142857142 0  C 5.79613095238095 0  6.26674107142858 0.0799851190476245  6.74665178571427 0.239955357142873  C 7.2265625 0.399925595238086  7.67299107142858 0.615699404761898  8.0859375 0.887276785714274  C 8.49888392857142 1.15885416666665  8.85416666666668 1.41369047619048  9.15178571428573 1.65178571428572  C 9.44940476190474 1.88988095238097  9.73214285714285 2.14285714285713  10 2.41071428571429  C 10.2678571428572 2.14285714285713  10.5505952380953 1.88988095238097  10.8482142857143 1.65178571428572  C 11.1458333333333 1.41369047619048  11.5011160714286 1.15885416666665  11.9140625 0.887276785714274  C 12.3270089285714 0.615699404761898  12.7734375 0.399925595238086  13.2533482142857 0.239955357142873  C 13.7332589285714 0.0799851190476245  14.2038690476191 0  14.6651785714286 0  C 16.3318452380953 0  17.6376488095238 0.461309523809535  18.5825892857143 1.38392857142857  Z " fill-rule="nonzero" fill="#75757f" stroke="none" transform="matrix(1 0 0 1 207 183 )" />
  </g>
</svg>